<?xml version="1.0" encoding="UTF-8"?>
<svg version="1.1" xmlns="http://www.w3.org/2000/svg" width="512" height="512">
<path d="M0 0 C1.38260057 -0.00374399 2.76519903 -0.00834847 4.14779419 -0.01373065 C7.91914375 -0.02588392 11.6904041 -0.02570931 15.46176875 -0.02334189 C19.54036276 -0.02293176 23.61892892 -0.03399159 27.69750977 -0.04345703 C35.67841807 -0.0600265 43.65929682 -0.06556477 51.64022089 -0.06668179 C58.13294344 -0.06763432 64.6256563 -0.07175482 71.11837578 -0.07808304 C89.55561868 -0.09568544 107.99283836 -0.10492363 126.43008972 -0.10342209 C127.42277178 -0.10334218 128.41545383 -0.10326227 129.43821716 -0.10317993 C130.92907385 -0.10305729 130.92907385 -0.10305729 132.45004886 -0.10293217 C148.54534703 -0.10211986 164.64055149 -0.12124639 180.73582257 -0.14945666 C197.29094605 -0.17824222 213.84602393 -0.1919938 230.40117306 -0.19026911 C239.68405965 -0.1896071 248.96684804 -0.19501599 258.24971199 -0.21662521 C266.15556335 -0.23491196 274.06127199 -0.23912333 281.96713544 -0.22560637 C285.99374658 -0.21911391 290.02008452 -0.21882305 294.04666901 -0.23631287 C328.82872678 -0.37765011 356.68979101 6.03547246 382.22996521 31.14242554 C401.29733155 50.38661908 410.37562485 75.41860637 410.30989075 102.22496033 C410.31363473 103.6075609 410.31823922 104.99015935 410.32362139 106.37275451 C410.33577467 110.14410408 410.33560005 113.91536443 410.33323264 117.68672907 C410.33282251 121.76532309 410.34388234 125.84388925 410.35334778 129.92247009 C410.36991725 137.9033784 410.37545551 145.88425714 410.37657253 153.86518122 C410.37752506 160.35790377 410.38164557 166.85061662 410.38797379 173.34333611 C410.40557618 191.78057901 410.41481438 210.21779868 410.41331284 228.65505005 C410.41319297 230.14407313 410.41319297 230.14407313 410.41307068 231.66317749 C410.41298892 232.65708195 410.41290716 233.65098641 410.41282292 234.67500918 C410.4120106 250.77030735 410.43113714 266.86551181 410.45934741 282.96078289 C410.48813297 299.51590638 410.50188455 316.07098425 410.50015986 332.62613338 C410.49949785 341.90901998 410.50490674 351.19180837 410.52651596 360.47467232 C410.54480271 368.38052368 410.54901407 376.28623232 410.53549711 384.19209576 C410.52900465 388.2187069 410.5287138 392.24504485 410.54620361 396.27162933 C410.68261122 429.83020514 405.17974983 457.48128918 381.04246521 482.26742554 C380.0563324 483.32896851 380.0563324 483.32896851 379.05027771 484.41195679 C366.45438723 497.64017108 349.60747283 505.91310421 332.04246521 510.26742554 C331.35385454 510.44117632 330.66524386 510.61492709 329.9557662 510.79394305 C322.68432286 512.44051906 315.63774489 512.55303514 308.20518494 512.53485107 C306.82344742 512.53859391 305.44171201 512.54319794 304.05997992 512.54858172 C300.28637106 512.56074944 296.51285127 512.56055864 292.73922729 512.55819297 C288.659934 512.5577832 284.58066866 512.56883928 280.50138855 512.57830811 C272.51700103 512.59488603 264.53264306 512.60041624 256.54823977 512.60153286 C250.05263289 512.60248508 243.5570357 512.60660405 237.06143188 512.61293411 C218.61828083 512.63053958 200.17515301 512.63977434 181.7319935 512.63827316 C180.73874604 512.63819325 179.74549858 512.63811334 178.72215271 512.63803101 C177.72768275 512.63794924 176.73321279 512.63786748 175.70860738 512.63778324 C159.60677911 512.63697106 143.50504455 512.65609351 127.40324336 512.68430774 C110.84363148 512.71309354 94.28406521 512.72684483 77.7244277 512.72512019 C68.43817276 512.72445814 59.15201599 512.72986862 49.86578369 512.75147629 C41.95624833 512.76976345 34.04685562 512.77397414 26.13730818 512.76045744 C22.10867878 512.75396491 18.08032243 512.75367434 14.05171967 512.77116394 C-19.51230362 512.90752337 -47.16690653 507.40908447 -71.95753479 483.26742554 C-73.01907776 482.28129272 -73.01907776 482.28129272 -74.10206604 481.27523804 C-89.96720285 466.16847296 -100.85999572 442.96305035 -102.14514232 421.07169425 C-102.21965511 417.48309423 -102.23376212 413.8992597 -102.22496033 410.30989075 C-102.22870431 408.92729018 -102.2333088 407.54469172 -102.23869097 406.16209656 C-102.25084425 402.39074699 -102.25066963 398.61948664 -102.24830222 394.848122 C-102.24789209 390.76952798 -102.25895192 386.69096183 -102.26841736 382.61238098 C-102.28498683 374.63147268 -102.29052509 366.65059393 -102.29164211 358.66966986 C-102.29259464 352.17694731 -102.29671515 345.68423445 -102.30304337 339.19151497 C-102.32064576 320.75427207 -102.32988396 302.31705239 -102.32838242 283.87980103 C-102.32830251 282.88711897 -102.32822259 281.89443691 -102.32814026 280.87167358 C-102.3280585 279.87776913 -102.32797674 278.88386467 -102.3278925 277.85984189 C-102.32708018 261.76454372 -102.34620672 245.66933926 -102.37441699 229.57406818 C-102.40320255 213.01894469 -102.41695413 196.46386682 -102.41522944 179.90871769 C-102.41456743 170.62583109 -102.41997632 161.34304271 -102.44158554 152.06017876 C-102.45987229 144.1543274 -102.46408365 136.24861875 -102.45056669 128.34275531 C-102.44407423 124.31614417 -102.44378338 120.28980623 -102.46127319 116.26322174 C-102.60261043 81.48116397 -96.18948786 53.62009974 -71.08253479 28.07992554 C-51.83834125 9.01255919 -26.80635396 -0.0657341 0 0 Z M68.04246521 105.26742554 C67.26566406 105.31081055 66.48886292 105.35419556 65.68852234 105.39889526 C60.9506789 105.66479269 56.2150191 105.95503694 51.47996521 106.26742554 C49.82118347 106.37353149 49.82118347 106.37353149 48.12889099 106.48178101 C39.99742464 106.73194452 39.99742464 106.73194452 33.04246521 110.26742554 C32.94366785 111.84405162 32.91507109 113.42511706 32.91383076 115.00483513 C32.91060631 116.03606117 32.90738186 117.06728721 32.90405971 118.12976253 C32.90560831 119.27652403 32.90715691 120.42328552 32.90875244 121.60479736 C32.90648688 122.81226659 32.90422133 124.01973582 32.90188712 125.26379502 C32.8966286 128.63062726 32.89590619 131.99740636 32.89708149 135.36423898 C32.89728476 138.98940179 32.89177389 142.6145565 32.88702393 146.23971558 C32.87870035 153.34799913 32.87596831 160.4562744 32.87541155 167.56456243 C32.87493716 173.34016323 32.8728863 179.1157613 32.86971092 184.89136124 C32.86089944 201.2501659 32.85629228 217.60896399 32.8570414 233.96777104 C32.85708135 234.85056816 32.85712131 235.73336527 32.85716248 236.64291382 C32.85720336 237.52678336 32.85724424 238.4106529 32.85728636 239.32130636 C32.85769289 253.64905001 32.8481227 267.97676738 32.83402411 282.30450343 C32.81967689 297.00036272 32.81275302 311.69620918 32.81361789 326.39207566 C32.81395045 334.64899753 32.8111777 342.90589188 32.80043983 351.16280746 C32.79135651 358.19278148 32.78914162 365.22271548 32.79594926 372.2526928 C32.79922558 375.84187169 32.79923136 379.43097373 32.79059601 383.02014542 C32.78134395 386.90549516 32.78747805 390.79073129 32.79522705 394.67608643 C32.79008349 395.81838648 32.78493992 396.96068653 32.7796405 398.13760173 C32.78423929 399.17404327 32.78883809 400.21048481 32.79357624 401.27833366 C32.79335887 402.17583017 32.7931415 403.07332668 32.79291755 403.99802005 C32.8970768 406.54814343 32.8970768 406.54814343 35.04246521 409.26742554 C37.93761426 409.72165106 37.93761426 409.72165106 41.38816833 409.63973999 C42.03873703 409.64339066 42.68930573 409.64704132 43.35958862 409.65080261 C45.51456132 409.65892256 47.66878543 409.64528706 49.82371521 409.63070679 C51.31822204 409.63018835 52.81272956 409.63070542 54.30723572 409.63221741 C57.44125024 409.63212762 60.57500787 409.62168523 63.70896912 409.60360718 C67.73098284 409.58091957 71.752621 409.58037512 75.77468109 409.58712482 C78.86128593 409.59046255 81.94780477 409.58383847 85.03439331 409.57399559 C86.5175939 409.57013989 88.00080404 409.5689969 89.48400879 409.57058144 C91.55511273 409.57095133 93.62573094 409.55835396 95.69676208 409.54208374 C96.87653625 409.53747635 98.05631042 409.53286896 99.27183533 409.52812195 C102.1838326 409.55122891 102.1838326 409.55122891 104.04246521 407.26742554 C104.33993567 405.27807097 104.33993567 405.27807097 104.28297424 402.96478271 C104.28572357 402.0617189 104.2884729 401.15865509 104.29130554 400.22822571 C104.28411499 399.23488724 104.27692444 398.24154877 104.26951599 397.21810913 C104.26980804 396.17418503 104.2701001 395.13026093 104.270401 394.05470276 C104.26900363 390.59167268 104.25342318 387.12885569 104.23777771 383.66586304 C104.23404903 381.26975624 104.23120138 378.87364793 104.22920227 376.47753906 C104.22155439 370.16130385 104.20189598 363.84516016 104.17979431 357.52896118 C104.15936073 351.08762856 104.15020588 344.6462812 104.14012146 338.20492554 C104.11865119 325.55905309 104.08488408 312.91324417 104.04246521 300.26742554 C108.23420228 300.19177174 112.42061236 300.20962832 116.61277771 300.24398804 C117.79525085 300.22151001 118.977724 300.19903198 120.19602966 300.1758728 C128.8348702 300.31194134 128.8348702 300.31194134 132.36018372 303.10127163 C135.35021543 306.7048724 137.7053404 310.58366402 139.54246521 314.89633179 C141.91212729 320.11652487 144.7802537 324.7922989 147.91746521 329.57992554 C148.91753857 331.1576586 149.91489359 332.73711772 150.90965271 334.31820679 C154.86934114 340.57954268 158.8509121 346.82693245 162.83103943 353.07528687 C166.09136898 358.19552091 169.34435976 363.32020585 172.58299255 368.45419312 C173.55104288 369.98853182 174.52010834 371.52223055 175.49021912 373.05526733 C178.24105154 377.40319477 180.97369171 381.76167631 183.69090271 386.13070679 C184.93295748 388.11386284 186.17514271 390.09693719 187.41746521 392.07992554 C187.9885199 393.00547241 188.55957458 393.93101929 189.14793396 394.88461304 C194.54441597 403.81457632 194.54441597 403.81457632 203.04246521 409.26742554 C205.28564048 409.36724701 207.53169992 409.40573551 209.77708435 409.41268921 C210.7970475 409.41772713 210.7970475 409.41772713 211.83761597 409.42286682 C214.08430305 409.43236294 216.33091556 409.43431899 218.57762146 409.43539429 C220.13796011 409.43860684 221.69829846 409.44197091 223.25863647 409.44548035 C226.52781371 409.45146757 229.79696452 409.45332057 233.06614685 409.45272827 C237.26184705 409.45262645 241.45737878 409.46630084 245.65303898 409.48350048 C248.8742959 409.49459781 252.09551173 409.49664821 255.31678581 409.49611855 C256.8641919 409.49730124 258.41159896 409.50173913 259.95898628 409.50945091 C262.11852613 409.51920908 264.27769525 409.51639002 266.4372406 409.51034546 C267.66729324 409.51177048 268.89734589 409.5131955 270.16467285 409.5146637 C273.17173919 409.56747507 273.17173919 409.56747507 275.04246521 407.26742554 C274.90860545 402.11382479 271.64592378 398.11539039 268.91746521 393.95492554 C267.82028866 392.25102772 266.72397542 390.54657378 265.62840271 388.84164429 C264.75393494 387.48692017 264.75393494 387.48692017 263.86180115 386.10482788 C260.7091238 381.18797119 257.62973108 376.22550957 254.54246521 371.26742554 C250.06226909 364.0881181 245.56832336 356.9180361 241.04246521 349.76742554 C235.8767093 341.60581119 230.75637468 333.41628602 225.64183044 325.22250366 C219.80904697 315.88279597 213.93361697 306.57039889 208.04246521 297.26742554 C211.7938759 295.85556056 215.54355021 294.44663009 219.31590271 293.09164429 C236.36504107 286.84315655 248.53858482 277.66260748 256.72996521 261.20492554 C270.316926 229.42752711 269.67718729 182.15256374 257.17430115 150.03744507 C253.24960909 140.77925049 248.35959079 133.25963435 241.04246521 126.26742554 C240.43016052 125.63578491 239.81785583 125.00414429 239.18699646 124.35336304 C219.7899748 105.57671521 186.35397685 103.12824424 160.93309021 103.09945679 C159.78843292 103.09531265 158.64377563 103.09116852 157.46443176 103.0868988 C153.74041017 103.07723111 150.01649745 103.07724565 146.29246521 103.07992554 C145.0131311 103.07986511 143.733797 103.07980469 142.41569519 103.07974243 C117.58341618 103.0963573 92.83248487 103.85678731 68.04246521 105.26742554 Z " fill="#000000" transform="translate(101.95753479003906,-0.267425537109375)"/>
<path d="M0 0 C9.075 -0.0825 18.15 -0.165 27.5 -0.25 C31.74520508 -0.30462402 31.74520508 -0.30462402 36.07617188 -0.36035156 C69.2890396 -0.61024013 69.2890396 -0.61024013 79.45703125 8.30078125 C90.12422701 20.04819936 89.64239715 36.04660864 89 51 C88.17621476 60.48917172 86.32292377 68.15563057 79.25 74.8125 C64.90345639 86.33162261 41.73649493 83.24969423 24.5 83.125 C16.415 83.08375 8.33 83.0425 0 83 C0 55.61 0 28.22 0 0 Z " fill="#000000" transform="translate(206,165)"/>
</svg>
